<svg xmlns="http://www.w3.org/2000/svg" xmlns:xlink="http://www.w3.org/1999/xlink" width="1000" height="700" version="1.1">
<style type="text/css">
.l0{
 fill: #000000;
  stroke: #000000;
  stroke-linecap:round;
  stroke-linejoin:round;
  stroke-width: 3.43475;
}
.l1{
 fill: #00ccee;
  stroke: #00ccee;
  stroke-linecap:round;
  stroke-linejoin:round;
  stroke-width: 3.43475;
}
.l2{
  fill: none;
  stroke: #4f4f4f;
  stroke-linecap:round;
  stroke-linejoin:round;
  stroke-width: 3.43475;
}
.l3{
 fill: #cccccc; fill-opacity: 0.5;
  stroke: #cccccc;
  stroke-linecap:round;
  stroke-linejoin:round;
  stroke-width: 3.43475;
}
.l4{
 fill: #88dd00;
  stroke: #88dd00;
  stroke-linecap:round;
  stroke-linejoin:round;
  stroke-width: 3.43475;
}
.l5{
 fill: #bb2200;
  stroke: #bb2200;
  stroke-linecap:round;
  stroke-linejoin:round;
  stroke-width: 3.43475;
}
.l6{
 fill: #00ccee; fill-opacity: 0.5;
  stroke: #00ccee;
  stroke-linecap:round;
  stroke-linejoin:round;
  stroke-width: 3.43475;
}
.l7{
 fill: #ff0000; fill-opacity: 0.5;
  stroke: #ff0000;
  stroke-linecap:round;
  stroke-linejoin:round;
  stroke-width: 3.43475;
}
.l8{
 fill: #ffff00; fill-opacity: 0.5;
  stroke: #ffff00;
  stroke-linecap:round;
  stroke-linejoin:round;
  stroke-width: 3.43475;
}
.l9{
 fill: #ffffff; fill-opacity: 0.5;
  stroke: #ffffff;
  stroke-linecap:round;
  stroke-linejoin:round;
  stroke-width: 3.43475;
}
.l10{
 fill: #ff00ff;
  stroke: #ff00ff;
  stroke-linecap:round;
  stroke-linejoin:round;
  stroke-width: 3.43475;
}
.l11{
 fill: #00ff00; fill-opacity: 0.5;
  stroke: #00ff00;
  stroke-linecap:round;
  stroke-linejoin:round;
  stroke-width: 3.43475;
}
.l12{
 fill: #0044dd; fill-opacity: 0.5;
  stroke: #0044dd;
  stroke-linecap:round;
  stroke-linejoin:round;
  stroke-width: 3.43475;
}
.l13{
 fill: #aaaa00; fill-opacity: 0.5;
  stroke: #aaaa00;
  stroke-linecap:round;
  stroke-linejoin:round;
  stroke-width: 3.43475;
}
.l14{
  fill: none;
  stroke: #aaccaa;
  stroke-linecap:round;
  stroke-linejoin:round;
  stroke-width: 3.43475;
}
.l15{
 fill: #ff7777; fill-opacity: 0.5;
  stroke: #ff7777;
  stroke-linecap:round;
  stroke-linejoin:round;
  stroke-width: 3.43475;
}
.l16{
 fill: #bfff81; fill-opacity: 0.5;
  stroke: #bfff81;
  stroke-linecap:round;
  stroke-linejoin:round;
  stroke-width: 3.43475;
}
.l17{
  fill: none;
  stroke: #00ffcc;
  stroke-linecap:round;
  stroke-linejoin:round;
  stroke-width: 3.43475;
}
.l18{
 fill: #ce0097; fill-opacity: 0.5;
  stroke: #ce0097;
  stroke-linecap:round;
  stroke-linejoin:round;
  stroke-width: 3.43475;
}
.l19{
  fill: none;
  stroke: #d2d46b;
  stroke-linecap:round;
  stroke-linejoin:round;
  stroke-width: 3.43475;
}
.l20{
  fill: none;
  stroke: #ef6158;
  stroke-linecap:round;
  stroke-linejoin:round;
  stroke-width: 3.43475;
}
.l21{
  fill: none;
  stroke: #fdb200;
  stroke-linecap:round;
  stroke-linejoin:round;
  stroke-width: 3.43475;
}
text {font-family: Sans-Serif;}
</style>
<rect class="l0" x="0" y="0" width="1000" height="700"/>
<text fill="#cccccc"  xml:space="preserve" font-size="49.6131" transform="translate(363.246, 368.016)" >Input Stage</text>
<text fill="#cccccc"  xml:space="preserve" font-size="33.0754" transform="translate(929.344, 182.852)" >@name</text>
<text fill="#cccccc"  xml:space="preserve" font-size="33.0754" transform="translate(877.141, 232.147)" >avdd</text>
<text fill="#cccccc"  xml:space="preserve" font-size="33.0754" transform="translate(877.141, 295.754)" >dvdd</text>
<text fill="#cccccc"  xml:space="preserve" font-size="33.0754" transform="translate(102.459, 232.147)" >ena</text>
<text fill="#cccccc"  xml:space="preserve" font-size="33.0754" transform="translate(102.459, 295.754)" >vtrip[3]</text>
<text fill="#cccccc"  xml:space="preserve" font-size="33.0754" transform="translate(882.241, 486.573)" >vss</text>
<text fill="#cccccc"  xml:space="preserve" font-size="33.0754" transform="translate(102.459, 359.36)" >vtrip[2]</text>
<text fill="#cccccc"  xml:space="preserve" font-size="33.0754" transform="translate(861.841, 391.164)" >mux_out</text>
<text fill="#cccccc"  xml:space="preserve" font-size="33.0754" transform="translate(102.459, 422.967)" >vtrip[1]</text>
<text fill="#cccccc"  xml:space="preserve" font-size="33.0754" transform="translate(102.459, 486.573)" >vtrip[0]</text>
<path class="l4" d="M86.5574 190.984L913.443 190.984"/>
<path class="l4" d="M86.5574 509.016L913.443 509.016"/>
<path class="l4" d="M86.5574 190.984L86.5574 509.016"/>
<path class="l4" d="M913.443 190.984L913.443 509.016"/>
<path class="l4" d="M22.9508 222.787L86.5574 222.787"/>
<path class="l4" d="M22.9508 286.393L86.5574 286.393"/>
<path class="l4" d="M22.9508 350L86.5574 350"/>
<path class="l4" d="M913.443 381.803L977.049 381.803"/>
<path class="l4" d="M22.9508 413.607L86.5574 413.607"/>
<path class="l4" d="M22.9508 477.213L86.5574 477.213"/>
<path class="l4" d="M913.443 222.787L977.049 222.787"/>
<path class="l4" d="M913.443 286.393L977.049 286.393"/>
<path class="l4" d="M913.443 477.213L977.049 477.213"/>
<path class="l5" d="M969.098 214.836L985 214.836L985 230.738L969.098 230.738L969.098 214.836z"/>
<path class="l5" d="M969.098 278.443L985 278.443L985 294.344L969.098 294.344L969.098 278.443z"/>
<path class="l5" d="M15 214.836L30.9016 214.836L30.9016 230.738L15 230.738L15 214.836z"/>
<path class="l5" d="M15 278.443L30.9016 278.443L30.9016 294.344L15 294.344L15 278.443z"/>
<path class="l5" d="M969.098 469.262L985 469.262L985 485.164L969.098 485.164L969.098 469.262z"/>
<path class="l5" d="M15 342.049L30.9016 342.049L30.9016 357.951L15 357.951L15 342.049z"/>
<path class="l5" d="M969.098 373.852L985 373.852L985 389.754L969.098 389.754L969.098 373.852z"/>
<path class="l5" d="M15 405.656L30.9016 405.656L30.9016 421.557L15 421.557L15 405.656z"/>
<path class="l5" d="M15 469.262L30.9016 469.262L30.9016 485.164L15 485.164L15 469.262z"/>
</svg>
