<svg xmlns="http://www.w3.org/2000/svg" xmlns:xlink="http://www.w3.org/1999/xlink" width="1000" height="700" version="1.1">
<style type="text/css">
.l0{
 fill: #000000;
  stroke: #000000;
  stroke-linecap:round;
  stroke-linejoin:round;
  stroke-width: 2.29163;
}
.l1{
 fill: #00ccee;
  stroke: #00ccee;
  stroke-linecap:round;
  stroke-linejoin:round;
  stroke-width: 2.29163;
}
.l2{
  fill: none;
  stroke: #4f4f4f;
  stroke-linecap:round;
  stroke-linejoin:round;
  stroke-width: 2.29163;
}
.l3{
 fill: #cccccc; fill-opacity: 0.5;
  stroke: #cccccc;
  stroke-linecap:round;
  stroke-linejoin:round;
  stroke-width: 2.29163;
}
.l4{
 fill: #88dd00;
  stroke: #88dd00;
  stroke-linecap:round;
  stroke-linejoin:round;
  stroke-width: 2.29163;
}
.l5{
 fill: #bb2200;
  stroke: #bb2200;
  stroke-linecap:round;
  stroke-linejoin:round;
  stroke-width: 2.29163;
}
.l6{
 fill: #00ccee; fill-opacity: 0.5;
  stroke: #00ccee;
  stroke-linecap:round;
  stroke-linejoin:round;
  stroke-width: 2.29163;
}
.l7{
 fill: #ff0000; fill-opacity: 0.5;
  stroke: #ff0000;
  stroke-linecap:round;
  stroke-linejoin:round;
  stroke-width: 2.29163;
}
.l8{
 fill: #ffff00; fill-opacity: 0.5;
  stroke: #ffff00;
  stroke-linecap:round;
  stroke-linejoin:round;
  stroke-width: 2.29163;
}
.l9{
 fill: #ffffff; fill-opacity: 0.5;
  stroke: #ffffff;
  stroke-linecap:round;
  stroke-linejoin:round;
  stroke-width: 2.29163;
}
.l10{
 fill: #ff00ff;
  stroke: #ff00ff;
  stroke-linecap:round;
  stroke-linejoin:round;
  stroke-width: 2.29163;
}
.l11{
 fill: #00ff00; fill-opacity: 0.5;
  stroke: #00ff00;
  stroke-linecap:round;
  stroke-linejoin:round;
  stroke-width: 2.29163;
}
.l12{
 fill: #0044dd; fill-opacity: 0.5;
  stroke: #0044dd;
  stroke-linecap:round;
  stroke-linejoin:round;
  stroke-width: 2.29163;
}
.l13{
 fill: #aaaa00; fill-opacity: 0.5;
  stroke: #aaaa00;
  stroke-linecap:round;
  stroke-linejoin:round;
  stroke-width: 2.29163;
}
.l14{
  fill: none;
  stroke: #aaccaa;
  stroke-linecap:round;
  stroke-linejoin:round;
  stroke-width: 2.29163;
}
.l15{
 fill: #ff7777; fill-opacity: 0.5;
  stroke: #ff7777;
  stroke-linecap:round;
  stroke-linejoin:round;
  stroke-width: 2.29163;
}
.l16{
 fill: #bfff81; fill-opacity: 0.5;
  stroke: #bfff81;
  stroke-linecap:round;
  stroke-linejoin:round;
  stroke-width: 2.29163;
}
.l17{
  fill: none;
  stroke: #00ffcc;
  stroke-linecap:round;
  stroke-linejoin:round;
  stroke-width: 2.29163;
}
.l18{
 fill: #ce0097; fill-opacity: 0.5;
  stroke: #ce0097;
  stroke-linecap:round;
  stroke-linejoin:round;
  stroke-width: 2.29163;
}
.l19{
  fill: none;
  stroke: #d2d46b;
  stroke-linecap:round;
  stroke-linejoin:round;
  stroke-width: 2.29163;
}
.l20{
  fill: none;
  stroke: #ef6158;
  stroke-linecap:round;
  stroke-linejoin:round;
  stroke-width: 2.29163;
}
.l21{
  fill: none;
  stroke: #fdb200;
  stroke-linecap:round;
  stroke-linejoin:round;
  stroke-width: 2.29163;
}
text {font-family: Sans-Serif;}
</style>
<rect class="l0" x="0" y="0" width="1000" height="700"/>
<text fill="#cccccc"  xml:space="preserve" font-size="44.135" transform="translate(328.128, 345.515)" >Comparator</text>
<text fill="#cccccc"  xml:space="preserve" font-size="22.0675" transform="translate(728.102, 280.919)" >@name</text>
<text fill="#cccccc"  xml:space="preserve" font-size="22.0675" transform="translate(506.123, 223.628)" >dvdd</text>
<text fill="#cccccc"  xml:space="preserve" font-size="33.1013" transform="translate(662.714, 360.959)" >out</text>
<text fill="#cccccc"  xml:space="preserve" font-size="44.135" transform="translate(293.117, 508.9)" >-</text>
<text fill="#cccccc"  xml:space="preserve" font-size="44.135" transform="translate(293.117, 211.837)" >+</text>
<text fill="#cccccc"  xml:space="preserve" font-size="22.0675" transform="translate(346.164, 573.737)" >ena</text>
<text fill="#cccccc"  xml:space="preserve" font-size="22.0675" transform="translate(367.383, 138.753)" >ibias</text>
<text fill="#cccccc"  xml:space="preserve" font-size="22.0675" transform="translate(511.223, 488.862)" >vss</text>
<path class="l4" d="M717.492 350L759.93 350"/>
<path class="l4" d="M240.07 498.531L282.508 498.531"/>
<path class="l4" d="M240.07 201.469L282.508 201.469"/>
<path class="l4" d="M420.43 583.406L420.43 625.844"/>
<path class="l4" d="M420.43 74.1563L420.43 116.594"/>
<path class="l4" d="M282.508 10.5L717.492 350"/>
<path class="l4" d="M282.508 689.5L717.492 350"/>
<path class="l4" d="M282.508 10.5L282.508 689.5"/>
<path class="l4" d="M367.383 413.656L484.086 413.656"/>
<path class="l4" d="M431.039 371.219L431.039 413.656"/>
<path class="l4" d="M484.086 371.219L484.086 413.656"/>
<path class="l4" d="M431.039 371.219L547.742 371.219"/>
<path class="l4" d="M526.523 159.031L526.523 201.469"/>
<path class="l4" d="M526.523 498.531L526.523 540.969"/>
<path class="l5" d="M521.219 153.727L531.828 153.727L531.828 164.336L521.219 164.336L521.219 153.727z"/>
<path class="l5" d="M754.625 344.695L765.234 344.695L765.234 355.305L754.625 355.305L754.625 344.695z"/>
<path class="l5" d="M234.766 493.227L245.375 493.227L245.375 503.836L234.766 503.836L234.766 493.227z"/>
<path class="l5" d="M234.766 196.164L245.375 196.164L245.375 206.773L234.766 206.773L234.766 196.164z"/>
<path class="l5" d="M415.125 620.539L425.734 620.539L425.734 631.148L415.125 631.148L415.125 620.539z"/>
<path class="l5" d="M415.125 68.8516L425.734 68.8516L425.734 79.4609L415.125 79.4609L415.125 68.8516z"/>
<path class="l5" d="M521.219 535.664L531.828 535.664L531.828 546.273L521.219 546.273L521.219 535.664z"/>
</svg>
